HIERARCHY
ROOT Hips
{
  OFFSET -86.2472 39.0038 -37.8923
  CHANNELS 6 Xposition Yposition Zposition Zrotation Xrotation Yrotation
  JOINT LeftHip
  {
    OFFSET 3.43 7.10543e-015 0
    CHANNELS 3 Zrotation Xrotation Yrotation
    JOINT LeftKnee
    {
      OFFSET -1.56319e-013 -18.47 -2.8777e-013
      CHANNELS 3 Zrotation Xrotation Yrotation
      JOINT LeftAnkle
      {
        OFFSET -1.77636e-012 -17.95 -1.87583e-012
        CHANNELS 3 Zrotation Xrotation Yrotation
        End Site
        {
          OFFSET 0 -3.12 0
        }
      }
    }
  }
  JOINT RightHip
  {
    OFFSET -3.43 7.10543e-015 7.10543e-015
    CHANNELS 3 Zrotation Xrotation Yrotation
    JOINT RightKnee
    {
      OFFSET -1.56319e-013 -18.47 -3.83693e-013
      CHANNELS 3 Zrotation Xrotation Yrotation
      JOINT RightAnkle
      {
        OFFSET -9.09495e-013 -17.95 2.359e-012
        CHANNELS 3 Zrotation Xrotation Yrotation
        End Site
        {
          OFFSET 0 -3.12 0
        }
      }
    }
  }
  JOINT Chest
  {
    OFFSET 1.98952e-013 4.57 -3.55271e-015
    CHANNELS 3 Zrotation Xrotation Yrotation
    JOINT Chest2
    {
      OFFSET 0 6.57 3.55271e-015
      CHANNELS 3 Zrotation Xrotation Yrotation
      JOINT LeftCollar
      {
        OFFSET 1.06 4.19 1.76
        CHANNELS 3 Zrotation Xrotation Yrotation
        JOINT LeftShoulder
        {
          OFFSET 5.81 7.10543e-015 -7.10543e-015
          CHANNELS 3 Zrotation Xrotation Yrotation
          JOINT LeftElbow
          {
            OFFSET -1.35003e-013 -12.08 -1.28608e-012
            CHANNELS 3 Zrotation Xrotation Yrotation
            JOINT LeftWrist
            {
              OFFSET -1.74865e-011 -9.82 -8.22808e-012
              CHANNELS 3 Zrotation Xrotation Yrotation
              End Site
              {
                OFFSET 0 -7.37 0
              }
            }
          }
        }
      }
      JOINT RightCollar
      {
        OFFSET -1.06 4.19 1.76
        CHANNELS 3 Zrotation Xrotation Yrotation
        JOINT RightShoulder
        {
          OFFSET -6.06 -1.42109e-014 1.77636e-014
          CHANNELS 3 Zrotation Xrotation Yrotation
          JOINT RightElbow
          {
            OFFSET -4.83169e-013 -11.08 -1.07825e-012
            CHANNELS 3 Zrotation Xrotation Yrotation
            JOINT RightWrist
            {
              OFFSET 6.38067e-012 -9.82 -1.4424e-011
              CHANNELS 3 Zrotation Xrotation Yrotation
              End Site
              {
                OFFSET 0 -7.14001 0
              }
            }
          }
        }
      }
      JOINT Neck
      {
        OFFSET -1.42109e-014 4.05 1.42109e-014
        CHANNELS 3 Zrotation Xrotation Yrotation
        JOINT Head
        {
          OFFSET 8.52651e-014 5.19 8.17124e-014
          CHANNELS 3 Zrotation Xrotation Yrotation
          End Site
          {
            OFFSET 0 4.14001 0
          }
        }
      }
    }
  }
}
MOTION
Frames:	21
Frame Time:	0.0333333
-79.6586 38.8416 90.4906 3.88651 -9.88347 38.4305 -3.56064 -16.5256 -1.35531 -1.85365 61.3708 11.1071 4.86344 -5.11943 0.217552 1.28259 5.00299 3.71942 -0.661961 22.8668 -9.93177 6.04133 -17.0355 0.905618 -0.253133 4.36834 1.20926 1.38912 6.2912 1.15737 14.4336 0.403464 4.88692 6.66861 3.01042 8.71518 -5.65125 -13.442 -37.1593 12.2284 -0.225105 0.0241134 -9.88618 0.414412 -3.0186 -12.5038 -6.88284 -3.80966 3.16549 -13.4098 37.1908 -2.16836 -5.9053 -0.111855 3.87146 -4.66182 5.1673 -7.81377 6.04167 10.0159 
-79.051 38.7832 91.3596 4.13926 -9.15893 38.5366 -3.60541 -19.1826 -1.24808 -3.9601 52.3719 15.5375 4.61705 -6.06415 0.244694 0.935542 6.63925 3.68026 -0.921507 22.3248 -10.4811 6.36773 -18.4636 1.03601 -0.618937 4.4595 1.93739 1.15938 6.37513 2.0199 14.4031 0.423881 5.15059 6.87787 4.97859 9.46917 -5.59448 -14.093 -36.7445 12.3122 -0.312535 0.03371 -10.1119 0.405888 -2.69438 -13.0962 -8.76169 -3.89093 2.72957 -12.9681 36.7978 -2.17839 -5.85969 -0.111503 3.73945 -4.67246 5.15447 -7.72186 5.80892 9.76019 
-78.4195 38.655 92.2323 4.04612 -8.65025 38.5095 -2.95221 -20.2577 -1.15434 -4.10924 40.3195 18.9886 4.7648 -6.16382 0.256691 0.867388 8.24305 3.72043 -1.02768 21.8656 -11.0159 6.70257 -19.9942 1.1828 -0.762585 4.49842 2.61747 1.10495 6.38687 2.8116 14.3023 0.43553 5.34945 6.88133 6.62377 10.4437 -5.06008 -13.6998 -36.1076 12.2998 -0.113639 0.0122446 -10.3175 0.399417 -2.4508 -13.6574 -10.4266 -4.01093 2.32539 -12.6597 36.4674 -2.24858 -5.82527 -0.11442 3.57961 -4.71171 5.17583 -7.65548 5.53809 9.55135 
-77.7209 38.448 93.1439 3.69843 -8.44062 38.3076 -1.86429 -19.7644 -1.20143 -3.16506 26.5815 21.0759 4.90353 -5.58436 0.239298 0.93381 9.87584 3.7116 -0.873901 21.6096 -11.2814 6.97189 -21.7181 1.339 -0.675659 4.4971 3.26333 1.20773 6.35066 3.5342 14.1221 0.438421 5.4916 6.7105 8.03831 11.586 -4.17466 -12.3536 -35.3588 12.1928 0.346668 -0.0370262 -10.5027 0.396748 -2.31268 -14.1368 -11.7393 -4.11246 2.02979 -12.678 36.2478 -2.4074 -5.81448 -0.122277 3.39804 -4.78966 5.25691 -7.61502 5.3026 9.42582 
-76.8794 38.1622 94.1548 3.10892 -8.68679 37.9745 -0.70537 -18.9978 -1.87289 -1.19239 15.7818 22.15 4.10583 -5.88836 0.211257 1.11984 11.9368 3.58534 -0.432134 21.1764 -11.1576 7.1521 -23.5283 1.49133 -0.18648 4.41707 3.8494 1.37286 6.23478 4.15317 13.8975 0.436024 5.59983 6.47653 9.43216 12.7615 -3.23113 -10.3321 -34.7201 11.9268 0.9528 -0.0995307 -10.649 0.398884 -2.29601 -14.4576 -12.4965 -4.16686 1.88829 -13.1227 36.1784 -2.64109 -5.84662 -0.134893 3.23673 -4.88263 5.39941 -7.59015 5.18815 9.41174 
-75.8798 37.9048 95.2237 2.85613 -8.91163 37.7762 -0.58474 -19.4025 -3.23426 1.26651 12.3887 22.8498 2.78148 -7.63485 0.185631 0.787909 15.5168 3.22036 0.0505831 18.6241 -10.4741 7.06683 -24.6029 1.54287 0.089813 4.32253 4.29951 1.47467 6.09207 4.59724 13.6893 0.43285 5.69268 6.14657 10.7551 13.7776 -2.48577 -8.00477 -34.2935 11.4283 1.53998 -0.154104 -10.7339 0.406092 -2.40583 -14.5001 -12.6425 -4.1424 1.90434 -13.9883 36.2504 -2.89383 -5.9443 -0.150281 3.14862 -4.94194 5.57347 -7.56721 5.24899 9.50847 
-74.736 37.74 96.3029 3.31066 -8.71304 37.9799 -2.10371 -21.1319 -4.86867 3.31481 17.3563 24.3859 3.14855 -9.60587 0.26462 -0.298991 19.9728 2.50954 0.42852 15.089 -9.32509 6.42389 -24.6083 1.40252 -0.269248 4.26431 4.56356 1.39226 5.93999 4.79952 13.5515 0.432004 5.7733 5.7009 11.8895 14.5081 -2.06203 -5.76997 -34.0977 10.6664 1.96201 -0.183175 -10.7524 0.417843 -2.63187 -14.1912 -12.1664 -4.03278 2.0651 -15.1706 36.4607 -3.07813 -6.12503 -0.164725 3.16668 -4.91999 5.72947 -7.53705 5.48091 9.6803 
-73.4516 37.6573 97.3887 4.19423 -8.2098 38.6716 -4.05069 -21.309 -6.151 4.06117 21.6721 27.5843 3.43926 -5.3156 0.159701 -1.8923 22.9827 1.46831 0.91552 14.7852 -7.88745 6.93677 -23.1957 1.42531 -0.923518 4.1466 4.64046 1.05911 5.6994 4.74411 13.5053 0.433996 5.83147 5.20164 12.8194 14.9381 -1.9377 -4.01179 -34.1212 9.6744 2.14247 -0.18133 -10.7238 0.432668 -2.9414 -13.5496 -11.0121 -3.86108 2.36544 -16.4865 36.8494 -3.08736 -6.39079 -0.172403 3.28767 -4.7993 5.82286 -7.49756 5.81797 9.87024 
-72.0484 37.7026 98.474 5.20878 -7.56446 39.883 -5.69723 -19.5313 -6.88744 3.62012 22.6684 29.504 3.16231 1.1363 -0.0313667 -3.66358 25.0866 0.336719 1.47731 16.3846 -7.08341 8.67818 -20.4719 1.56998 -1.54941 3.91422 4.4866 0.498498 5.3478 4.47875 13.5297 0.43695 5.85425 4.6611 13.4268 15.0779 -2.00976 -3.02509 -34.2815 8.55028 2.08154 -0.155621 -10.6789 0.448244 -3.27853 -12.6232 -9.23789 -3.63968 2.80086 -17.7121 37.4564 -2.8122 -6.722 -0.165188 3.47671 -4.61063 5.83594 -7.44935 6.15654 10.0251 
-70.5408 37.9293 99.5709 6.01037 -7.13389 41.6824 -7.11214 -16.7975 -7.4435 2.89398 22.85 29.0726 3.0781 2.78479 -0.0748363 -5.21661 25.5536 -0.902379 1.93139 20.8445 -6.92579 13.0011 -14.9299 1.71075 -1.71728 3.54798 3.93731 -0.196851 4.90625 4.08436 13.5731 0.43769 5.83443 4.12924 13.5655 14.9056 -2.21281 -2.93357 -34.5475 7.4479 1.82769 -0.118969 -10.6366 0.461754 -3.57736 -11.5045 -7.01203 -3.37539 3.35696 -18.6369 38.3045 -2.17358 -7.08589 -0.134593 3.68485 -4.42419 5.78275 -7.38968 6.3963 10.1163 
-69.0232 38.1822 100.62 6.71344 -6.86567 43.81 -8.59297 -14.3301 -8.1223 2.36323 24.2979 27.8804 2.75138 -0.863203 0.0207302 -6.4146 23.7142 -2.29572 2.04965 28.5874 -7.03992 15.0854 -5.40485 0.716184 -1.66641 3.22066 3.19661 -0.90499 4.56598 3.61973 13.5806 0.433127 5.76862 3.74511 13.0451 14.3463 -2.5593 -3.65951 -34.9871 6.55889 1.44115 -0.0825819 -10.5897 0.470462 -3.78559 -10.4068 -4.8335 -3.09389 3.98323 -19.1252 39.341 -1.17172 -7.45062 -0.0762939 3.86865 -4.31085 5.69437 -7.30922 6.47749 10.1442 
-67.5984 38.3071 101.552 7.52215 -6.50096 45.9775 -10.0631 -12.034 -8.85284 1.8973 25.8654 26.9956 2.47027 -4.34225 0.0936662 -7.35336 19.4465 -3.39371 1.49989 39.1898 -7.23836 13.4828 5.96529 -0.705759 -1.80623 3.13 2.55282 -1.52152 4.51685 3.07842 13.5257 0.421397 5.64887 3.62573 11.6981 13.3382 -3.08856 -4.97419 -35.7092 6.08114 0.977667 -0.0519328 -10.5085 0.472609 -3.88601 -9.53568 -3.04386 -2.80942 4.59273 -19.1515 40.4273 0.0760801 -7.78843 0.0051789 4.00518 -4.30128 5.595 -7.19506 6.40069 10.1275 
-66.2639 38.3664 102.372 8.29741 -6.1347 48.3369 -11.3092 -9.67304 -9.46079 1.37 27.0234 25.96 2.51705 -7.48977 0.164777 -7.64583 14.3862 -4.03688 0.125353 49.3455 -7.09155 10.15 14.0335 -1.2525 -1.98603 3.23357 1.9069 -1.9838 4.70949 2.38558 13.4251 0.402332 5.45824 3.78069 9.52958 11.9256 -3.7924 -6.59978 -36.7666 6.16507 0.499355 -0.0268916 -10.3583 0.468361 -3.90437 -8.88652 -1.647 -2.57602 5.08572 -18.784 41.3717 1.35078 -8.06666 0.0952498 4.09701 -4.37311 5.48396 -7.0403 6.22044 10.0844 
-65.001 38.4327 103.098 8.89367 -5.82986 51.1481 -12.1721 -6.97991 -9.89549 0.958502 27.2042 24.2592 3.02266 -10.0349 0.265438 -7.12909 9.29356 -4.17972 -1.69597 57.3387 -6.99535 6.87774 15.0977 -0.912514 -2.04991 3.42092 1.11751 -2.26485 5.00782 1.44807 13.3292 0.377304 5.17822 4.13745 6.66391 10.2557 -4.58349 -8.2972 -38.0429 6.83914 0.0793257 -0.00474001 -10.1192 0.459913 -3.89804 -8.40995 -0.553222 -2.49189 5.36692 -18.1317 41.9561 2.41177 -8.24174 0.173786 4.16667 -4.4717 5.3342 -6.85228 6.01708 10.0177 
-63.8136 38.5219 103.735 9.23103 -5.52914 54.5435 -12.5409 -4.12469 -10.102 0.707022 26.4646 21.6522 3.94052 -11.9187 0.411498 -5.98917 4.21459 -3.84967 -3.55209 62.67 -6.9696 2.61832 9.6291 -0.220574 -1.99582 3.61024 0.156131 -2.35691 5.29859 0.227976 13.2952 0.348607 4.80452 4.52351 3.26058 8.51099 -5.32467 -9.911 -39.2579 7.95036 -0.234846 0.0163198 -9.79912 0.450316 -3.92942 -8.07151 0.34917 -2.63656 5.38016 -17.2961 42.029 3.09526 -8.27468 0.223953 4.24638 -4.54467 5.1074 -6.65139 5.86415 9.9122 
-62.7042 38.6298 104.3 9.25644 -5.2285 58.4778 -12.3155 -1.41164 -10.0515 0.520458 25.0718 18.0271 5.20224 -13.1395 0.599542 -4.6443 -0.811264 -3.11425 -5.15423 64.6471 -6.76458 -1.11131 2.96564 0.028768 -1.83077 3.73989 -0.933357 -2.2662 5.49632 -1.20776 13.3598 0.318684 4.35851 4.92547 -0.594584 6.8397 -5.89197 -11.3898 -40.1252 9.19099 -0.46113 0.0370654 -9.4329 0.441877 -4.03635 -7.83572 1.16878 -3.02403 5.14406 -16.3471 41.6086 3.36994 -8.1605 0.240462 4.36843 -4.56543 4.776 -6.45817 5.80357 9.74279 
-61.6585 38.7574 104.826 8.98513 -4.96958 62.7055 -11.5219 1.12643 -9.81283 0.425004 23.2159 13.6051 6.53995 -13.8124 0.792986 -3.40276 -5.6101 -2.18005 -6.10187 63.2665 -7.1699 -3.27694 -1.67424 -0.0478943 -1.5801 3.78016 -2.04208 -2.0261 5.56252 -2.69243 13.5253 0.289717 3.88555 5.55038 -4.42656 5.3127 -6.2277 -12.7957 -40.4996 10.2315 -0.662148 0.0592793 -9.07072 0.435465 -4.21533 -7.67873 1.96814 -3.58476 4.75214 -15.3195 40.8948 3.32963 -7.94038 0.231155 4.55581 -4.53943 4.34006 -6.27573 5.83434 9.48835 
-60.6566 38.8723 105.346 8.48405 -4.85411 66.8734 -10.3161 3.41849 -9.48566 0.54733 21.4307 8.90456 7.60098 -14.3562 0.95866 -2.34304 -10.0273 -1.23953 -6.34168 59.9965 -9.71415 -3.40162 -8.11199 -0.241276 -1.22887 3.75064 -3.04835 -1.71571 5.51815 -4.02162 13.7623 0.263656 3.4403 5.22872 -8.05279 3.92822 -6.36337 -14.2807 -40.4191 10.8786 -0.878694 0.0836708 -8.75925 0.430954 -4.42727 -7.5922 2.74903 -4.19314 4.33428 -14.2202 40.1856 3.13728 -7.68737 0.210833 4.81485 -4.49914 3.83009 -6.0822 5.91604 9.1424 
-59.6799 38.921 105.885 7.90044 -4.90744 70.6519 -8.91147 5.39637 -9.1346 0.892902 20.3868 4.49499 8.25191 -15.3813 1.11623 -1.51911 -13.3636 -0.354833 -5.68455 53.08 -12.071 -3.86275 -12.9439 -0.438354 -0.806866 3.70562 -3.85949 -1.44392 5.43157 -5.03681 14.0253 0.242124 3.06707 5.08422 -11.712 2.7127 -6.40331 -16.0124 -40.0546 11.1512 -1.09777 0.107168 -8.5257 0.427883 -4.6208 -7.56428 3.45736 -4.72197 3.99791 -13.0507 39.7364 2.94106 -7.47031 0.192044 5.13069 -4.48923 3.29691 -5.84013 5.98277 8.71735 
-58.6972 38.9013 106.449 7.44033 -4.95165 73.8131 -7.51794 7.25432 -8.74988 1.18075 19.7244 0.711846 8.72999 -16.7161 1.28503 -1.18478 -15.2389 0.416205 -4.5943 41.9322 -12.9278 -3.95962 -11.9638 -0.415073 -0.485886 3.69688 -4.41836 -1.30809 5.37846 -5.6772 14.2703 0.226064 2.78778 5.09255 -14.7824 1.62419 -6.47609 -18.0752 -39.6519 11.2317 -1.28801 0.126655 -8.37275 0.425736 -4.75743 -7.57106 4.01787 -5.09835 3.78387 -11.8314 39.6447 2.80286 -7.31684 0.179246 5.4665 -4.54441 2.79744 -5.5181 5.96619 8.24295 
-57.6647 38.8111 107.043 7.24011 -4.81383 76.2856 -6.2921 9.12412 -8.29665 1.15471 19.2364 -2.34721 9.23429 -18.1905 1.48143 -1.63327 -15.3233 0.930893 -3.50198 27.3913 -12.863 0.589638 -5.14723 0.0265035 -0.398751 3.75138 -4.74197 -1.3592 5.40848 -5.97515 14.4664 0.215574 2.60315 5.17476 -17.2601 0.684916 -6.66989 -20.3981 -39.4656 11.336 -1.45114 0.144031 -8.28495 0.424029 -4.82507 -7.60936 4.39269 -5.33543 3.66077 -10.6073 39.8261 2.68601 -7.20295 0.16909 5.76933 -4.6654 2.38245 -5.11506 5.82405 7.76241 
